<svg width="846" height="195" viewBox="0 0 846 195" xmlns="http://www.w3.org/2000/svg" role="img" aria-label="AI usage">
<style>
.t{font:600 18px 'Segoe UI',Ubuntu,sans-serif;fill:#4ade80}
.user{font:600 14px 'Segoe UI',Ubuntu,sans-serif;fill:#9e9e9e}
.hdr{font:600 11px 'Segoe UI',Ubuntu,sans-serif;fill:#6b6b6b;letter-spacing:1.5px}
.big{font:800 44px 'Segoe UI',Ubuntu,sans-serif;fill:#4ade80}
.sub{font:400 13px 'Segoe UI',Ubuntu,sans-serif;fill:#9e9e9e}
.lbl{font:400 13px 'Segoe UI',Ubuntu,sans-serif;fill:#a3a3a3}
.val{font:700 14px 'Segoe UI',Ubuntu,sans-serif;fill:#4ade80}
.foot{font:400 11px 'Segoe UI',Ubuntu,sans-serif;fill:#6b6b6b}
.fade{opacity:0;animation:fadeIn .8s ease-in-out forwards}
@keyframes fadeIn{to{opacity:1}}
</style>
<rect width="845" height="194" x="0.5" y="0.5" rx="4.5" fill="#000000" stroke="#262626" stroke-width="1"/>
<text x="30" y="34" class="t fade">&#9889; AI Usage</text>
<text x="816" y="34" text-anchor="end" class="user fade">@hmmhmmhm</text>
<text x="816" y="49" text-anchor="end" class="foot fade">API-equivalent &#183; 2026-07-24</text>
<line x1="200" y1="60" x2="200" y2="175" stroke="#262626" stroke-width="1"/>
<line x1="420" y1="60" x2="420" y2="175" stroke="#262626" stroke-width="1"/>
<g class="fade" style="animation-delay:150ms"><text x="30" y="74" class="hdr">ALL-TIME</text>
<text x="30" y="140" class="big">70.8B</text>
<text x="30" y="165" class="sub">tokens &#183; 94.4% cache-hit</text></g>
<g class="fade" style="animation-delay:300ms"><text x="222" y="74" class="hdr">COST</text><text x="222" y="98" class="lbl">USD</text><text x="393" y="98" text-anchor="end" class="val">$ 38,722</text><text x="222" y="123" class="lbl">KRW</text><text x="393" y="123" text-anchor="end" class="val">₩ 57,250,323</text><text x="222" y="148" class="lbl">EUR</text><text x="393" y="148" text-anchor="end" class="val">€ 33,935</text><text x="222" y="173" class="lbl">CNY</text><text x="393" y="173" text-anchor="end" class="val">¥ 262,595</text></g>
<g class="fade" style="animation-delay:500ms"><text x="440" y="74" class="hdr">GRASS &#183; LAST 26 WEEKS</text><rect x="440" y="84" width="11" height="11" rx="2" fill="#1b1b1b"/><rect x="440" y="98" width="11" height="11" rx="2" fill="#1b1b1b"/><rect x="440" y="112" width="11" height="11" rx="2" fill="#1b1b1b"/><rect x="440" y="126" width="11" height="11" rx="2" fill="#1b1b1b"/><rect x="440" y="140" width="11" height="11" rx="2" fill="#1b1b1b"/><rect x="440" y="154" width="11" height="11" rx="2" fill="#1b1b1b"/><rect x="440" y="168" width="11" height="11" rx="2" fill="#1b1b1b"/><rect x="454" y="84" width="11" height="11" rx="2" fill="#1b1b1b"/><rect x="454" y="98" width="11" height="11" rx="2" fill="#1b1b1b"/><rect x="454" y="112" width="11" height="11" rx="2" fill="#1b1b1b"/><rect x="454" y="126" width="11" height="11" rx="2" fill="#1b1b1b"/><rect x="454" y="140" width="11" height="11" rx="2" fill="#1b1b1b"/><rect x="454" y="154" width="11" height="11" rx="2" fill="#1b1b1b"/><rect x="454" y="168" width="11" height="11" rx="2" fill="#1b1b1b"/><rect x="468" y="84" width="11" height="11" rx="2" fill="#1b1b1b"/><rect x="468" y="98" width="11" height="11" rx="2" fill="#1b1b1b"/><rect x="468" y="112" width="11" height="11" rx="2" fill="#1b1b1b"/><rect x="468" y="126" width="11" height="11" rx="2" fill="#1b1b1b"/><rect x="468" y="140" width="11" height="11" rx="2" fill="#1b1b1b"/><rect x="468" y="154" width="11" height="11" rx="2" fill="#0e4429"/><rect x="468" y="168" width="11" height="11" rx="2" fill="#1b1b1b"/><rect x="482" y="84" width="11" height="11" rx="2" fill="#0e4429"/><rect x="482" y="98" width="11" height="11" rx="2" fill="#0e4429"/><rect x="482" y="112" width="11" height="11" rx="2" fill="#0e4429"/><rect x="482" y="126" width="11" height="11" rx="2" fill="#0e4429"/><rect x="482" y="140" width="11" height="11" rx="2" fill="#0e4429"/><rect x="482" y="154" width="11" height="11" rx="2" fill="#0e4429"/><rect x="482" y="168" width="11" height="11" rx="2" fill="#0e4429"/><rect x="496" y="84" width="11" height="11" rx="2" fill="#0e4429"/><rect x="496" y="98" width="11" height="11" rx="2" fill="#0e4429"/><rect x="496" y="112" width="11" height="11" rx="2" fill="#0e4429"/><rect x="496" y="126" width="11" height="11" rx="2" fill="#0e4429"/><rect x="496" y="140" width="11" height="11" rx="2" fill="#0e4429"/><rect x="496" y="154" width="11" height="11" rx="2" fill="#0e4429"/><rect x="496" y="168" width="11" height="11" rx="2" fill="#1b1b1b"/><rect x="510" y="84" width="11" height="11" rx="2" fill="#1b1b1b"/><rect x="510" y="98" width="11" height="11" rx="2" fill="#0e4429"/><rect x="510" y="112" width="11" height="11" rx="2" fill="#0e4429"/><rect x="510" y="126" width="11" height="11" rx="2" fill="#0e4429"/><rect x="510" y="140" width="11" height="11" rx="2" fill="#0e4429"/><rect x="510" y="154" width="11" height="11" rx="2" fill="#0e4429"/><rect x="510" y="168" width="11" height="11" rx="2" fill="#0e4429"/><rect x="524" y="84" width="11" height="11" rx="2" fill="#0e4429"/><rect x="524" y="98" width="11" height="11" rx="2" fill="#0e4429"/><rect x="524" y="112" width="11" height="11" rx="2" fill="#0e4429"/><rect x="524" y="126" width="11" height="11" rx="2" fill="#0e4429"/><rect x="524" y="140" width="11" height="11" rx="2" fill="#0e4429"/><rect x="524" y="154" width="11" height="11" rx="2" fill="#0e4429"/><rect x="524" y="168" width="11" height="11" rx="2" fill="#0e4429"/><rect x="538" y="84" width="11" height="11" rx="2" fill="#0e4429"/><rect x="538" y="98" width="11" height="11" rx="2" fill="#1b1b1b"/><rect x="538" y="112" width="11" height="11" rx="2" fill="#0e4429"/><rect x="538" y="126" width="11" height="11" rx="2" fill="#0e4429"/><rect x="538" y="140" width="11" height="11" rx="2" fill="#0e4429"/><rect x="538" y="154" width="11" height="11" rx="2" fill="#0e4429"/><rect x="538" y="168" width="11" height="11" rx="2" fill="#0e4429"/><rect x="552" y="84" width="11" height="11" rx="2" fill="#0e4429"/><rect x="552" y="98" width="11" height="11" rx="2" fill="#1b1b1b"/><rect x="552" y="112" width="11" height="11" rx="2" fill="#1b1b1b"/><rect x="552" y="126" width="11" height="11" rx="2" fill="#0e4429"/><rect x="552" y="140" width="11" height="11" rx="2" fill="#006d32"/><rect x="552" y="154" width="11" height="11" rx="2" fill="#0e4429"/><rect x="552" y="168" width="11" height="11" rx="2" fill="#1b1b1b"/><rect x="566" y="84" width="11" height="11" rx="2" fill="#0e4429"/><rect x="566" y="98" width="11" height="11" rx="2" fill="#0e4429"/><rect x="566" y="112" width="11" height="11" rx="2" fill="#0e4429"/><rect x="566" y="126" width="11" height="11" rx="2" fill="#0e4429"/><rect x="566" y="140" width="11" height="11" rx="2" fill="#0e4429"/><rect x="566" y="154" width="11" height="11" rx="2" fill="#0e4429"/><rect x="566" y="168" width="11" height="11" rx="2" fill="#1b1b1b"/><rect x="580" y="84" width="11" height="11" rx="2" fill="#0e4429"/><rect x="580" y="98" width="11" height="11" rx="2" fill="#0e4429"/><rect x="580" y="112" width="11" height="11" rx="2" fill="#0e4429"/><rect x="580" y="126" width="11" height="11" rx="2" fill="#0e4429"/><rect x="580" y="140" width="11" height="11" rx="2" fill="#0e4429"/><rect x="580" y="154" width="11" height="11" rx="2" fill="#1b1b1b"/><rect x="580" y="168" width="11" height="11" rx="2" fill="#1b1b1b"/><rect x="594" y="84" width="11" height="11" rx="2" fill="#0e4429"/><rect x="594" y="98" width="11" height="11" rx="2" fill="#0e4429"/><rect x="594" y="112" width="11" height="11" rx="2" fill="#0e4429"/><rect x="594" y="126" width="11" height="11" rx="2" fill="#0e4429"/><rect x="594" y="140" width="11" height="11" rx="2" fill="#0e4429"/><rect x="594" y="154" width="11" height="11" rx="2" fill="#0e4429"/><rect x="594" y="168" width="11" height="11" rx="2" fill="#0e4429"/><rect x="608" y="84" width="11" height="11" rx="2" fill="#0e4429"/><rect x="608" y="98" width="11" height="11" rx="2" fill="#0e4429"/><rect x="608" y="112" width="11" height="11" rx="2" fill="#1b1b1b"/><rect x="608" y="126" width="11" height="11" rx="2" fill="#1b1b1b"/><rect x="608" y="140" width="11" height="11" rx="2" fill="#0e4429"/><rect x="608" y="154" width="11" height="11" rx="2" fill="#1b1b1b"/><rect x="608" y="168" width="11" height="11" rx="2" fill="#0e4429"/><rect x="622" y="84" width="11" height="11" rx="2" fill="#0e4429"/><rect x="622" y="98" width="11" height="11" rx="2" fill="#1b1b1b"/><rect x="622" y="112" width="11" height="11" rx="2" fill="#1b1b1b"/><rect x="622" y="126" width="11" height="11" rx="2" fill="#1b1b1b"/><rect x="622" y="140" width="11" height="11" rx="2" fill="#0e4429"/><rect x="622" y="154" width="11" height="11" rx="2" fill="#0e4429"/><rect x="622" y="168" width="11" height="11" rx="2" fill="#0e4429"/><rect x="636" y="84" width="11" height="11" rx="2" fill="#0e4429"/><rect x="636" y="98" width="11" height="11" rx="2" fill="#0e4429"/><rect x="636" y="112" width="11" height="11" rx="2" fill="#006d32"/><rect x="636" y="126" width="11" height="11" rx="2" fill="#0e4429"/><rect x="636" y="140" width="11" height="11" rx="2" fill="#0e4429"/><rect x="636" y="154" width="11" height="11" rx="2" fill="#0e4429"/><rect x="636" y="168" width="11" height="11" rx="2" fill="#0e4429"/><rect x="650" y="84" width="11" height="11" rx="2" fill="#0e4429"/><rect x="650" y="98" width="11" height="11" rx="2" fill="#0e4429"/><rect x="650" y="112" width="11" height="11" rx="2" fill="#0e4429"/><rect x="650" y="126" width="11" height="11" rx="2" fill="#0e4429"/><rect x="650" y="140" width="11" height="11" rx="2" fill="#0e4429"/><rect x="650" y="154" width="11" height="11" rx="2" fill="#0e4429"/><rect x="650" y="168" width="11" height="11" rx="2" fill="#0e4429"/><rect x="664" y="84" width="11" height="11" rx="2" fill="#26a641"/><rect x="664" y="98" width="11" height="11" rx="2" fill="#0e4429"/><rect x="664" y="112" width="11" height="11" rx="2" fill="#006d32"/><rect x="664" y="126" width="11" height="11" rx="2" fill="#006d32"/><rect x="664" y="140" width="11" height="11" rx="2" fill="#39d353"/><rect x="664" y="154" width="11" height="11" rx="2" fill="#26a641"/><rect x="664" y="168" width="11" height="11" rx="2" fill="#006d32"/><rect x="678" y="84" width="11" height="11" rx="2" fill="#006d32"/><rect x="678" y="98" width="11" height="11" rx="2" fill="#0e4429"/><rect x="678" y="112" width="11" height="11" rx="2" fill="#0e4429"/><rect x="678" y="126" width="11" height="11" rx="2" fill="#006d32"/><rect x="678" y="140" width="11" height="11" rx="2" fill="#006d32"/><rect x="678" y="154" width="11" height="11" rx="2" fill="#006d32"/><rect x="678" y="168" width="11" height="11" rx="2" fill="#006d32"/><rect x="692" y="84" width="11" height="11" rx="2" fill="#0e4429"/><rect x="692" y="98" width="11" height="11" rx="2" fill="#006d32"/><rect x="692" y="112" width="11" height="11" rx="2" fill="#0e4429"/><rect x="692" y="126" width="11" height="11" rx="2" fill="#0e4429"/><rect x="692" y="140" width="11" height="11" rx="2" fill="#0e4429"/><rect x="692" y="154" width="11" height="11" rx="2" fill="#0e4429"/><rect x="692" y="168" width="11" height="11" rx="2" fill="#0e4429"/><rect x="706" y="84" width="11" height="11" rx="2" fill="#006d32"/><rect x="706" y="98" width="11" height="11" rx="2" fill="#26a641"/><rect x="706" y="112" width="11" height="11" rx="2" fill="#0e4429"/><rect x="706" y="126" width="11" height="11" rx="2" fill="#006d32"/><rect x="706" y="140" width="11" height="11" rx="2" fill="#006d32"/><rect x="706" y="154" width="11" height="11" rx="2" fill="#006d32"/><rect x="706" y="168" width="11" height="11" rx="2" fill="#006d32"/><rect x="720" y="84" width="11" height="11" rx="2" fill="#0e4429"/><rect x="720" y="98" width="11" height="11" rx="2" fill="#006d32"/><rect x="720" y="112" width="11" height="11" rx="2" fill="#006d32"/><rect x="720" y="126" width="11" height="11" rx="2" fill="#0e4429"/><rect x="720" y="140" width="11" height="11" rx="2" fill="#0e4429"/><rect x="720" y="154" width="11" height="11" rx="2" fill="#0e4429"/><rect x="720" y="168" width="11" height="11" rx="2" fill="#0e4429"/><rect x="734" y="84" width="11" height="11" rx="2" fill="#0e4429"/><rect x="734" y="98" width="11" height="11" rx="2" fill="#0e4429"/><rect x="734" y="112" width="11" height="11" rx="2" fill="#006d32"/><rect x="734" y="126" width="11" height="11" rx="2" fill="#006d32"/><rect x="734" y="140" width="11" height="11" rx="2" fill="#006d32"/><rect x="734" y="154" width="11" height="11" rx="2" fill="#0e4429"/><rect x="734" y="168" width="11" height="11" rx="2" fill="#0e4429"/><rect x="748" y="84" width="11" height="11" rx="2" fill="#0e4429"/><rect x="748" y="98" width="11" height="11" rx="2" fill="#0e4429"/><rect x="748" y="112" width="11" height="11" rx="2" fill="#0e4429"/><rect x="748" y="126" width="11" height="11" rx="2" fill="#006d32"/><rect x="748" y="140" width="11" height="11" rx="2" fill="#26a641"/><rect x="748" y="154" width="11" height="11" rx="2" fill="#0e4429"/><rect x="748" y="168" width="11" height="11" rx="2" fill="#0e4429"/><rect x="762" y="84" width="11" height="11" rx="2" fill="#0e4429"/><rect x="762" y="98" width="11" height="11" rx="2" fill="#0e4429"/><rect x="762" y="112" width="11" height="11" rx="2" fill="#0e4429"/><rect x="762" y="126" width="11" height="11" rx="2" fill="#0e4429"/><rect x="762" y="140" width="11" height="11" rx="2" fill="#0e4429"/><rect x="762" y="154" width="11" height="11" rx="2" fill="#0e4429"/><rect x="762" y="168" width="11" height="11" rx="2" fill="#0e4429"/><rect x="776" y="84" width="11" height="11" rx="2" fill="#0e4429"/><rect x="776" y="98" width="11" height="11" rx="2" fill="#006d32"/><rect x="776" y="112" width="11" height="11" rx="2" fill="#26a641"/><rect x="776" y="126" width="11" height="11" rx="2" fill="#006d32"/><rect x="776" y="140" width="11" height="11" rx="2" fill="#0e4429"/><rect x="776" y="154" width="11" height="11" rx="2" fill="#0e4429"/><rect x="776" y="168" width="11" height="11" rx="2" fill="#0e4429"/><rect x="790" y="84" width="11" height="11" rx="2" fill="#0e4429"/><rect x="790" y="98" width="11" height="11" rx="2" fill="#0e4429"/><rect x="790" y="112" width="11" height="11" rx="2" fill="#0e4429"/><rect x="790" y="126" width="11" height="11" rx="2" fill="#39d353"/><rect x="790" y="140" width="11" height="11" rx="2" fill="#006d32"/><rect x="790" y="154" width="11" height="11" rx="2" fill="#0e4429"/></g>
</svg>
