<svg width="423" height="195" viewBox="0 0 423 195" xmlns="http://www.w3.org/2000/svg" role="img" aria-label="AI usage">
<style>
.t{font:600 18px 'Segoe UI',Ubuntu,sans-serif;fill:#4ade80}
.user{font:600 14px 'Segoe UI',Ubuntu,sans-serif;fill:#9e9e9e}
.hdr{font:600 11px 'Segoe UI',Ubuntu,sans-serif;fill:#6b6b6b;letter-spacing:1.5px}
.big{font:800 44px 'Segoe UI',Ubuntu,sans-serif;fill:#4ade80}
.sub{font:400 13px 'Segoe UI',Ubuntu,sans-serif;fill:#9e9e9e}
.lbl{font:400 13px 'Segoe UI',Ubuntu,sans-serif;fill:#a3a3a3}
.val{font:700 14px 'Segoe UI',Ubuntu,sans-serif;fill:#4ade80}
.foot{font:400 11px 'Segoe UI',Ubuntu,sans-serif;fill:#6b6b6b}
.fade{opacity:0;animation:fadeIn .8s ease-in-out forwards}
@keyframes fadeIn{to{opacity:1}}
</style>
<rect width="422" height="194" x="0.5" y="0.5" rx="4.5" fill="#000000" stroke="#262626" stroke-width="1"/>
<text x="30" y="34" class="t fade">&#9889; AI Usage</text>
<text x="393" y="34" text-anchor="end" class="user fade">@hmmhmmhm</text>
<text x="393" y="49" text-anchor="end" class="foot fade">API-equivalent &#183; 2026-07-17</text>
<g class="fade" style="animation-delay:200ms"><rect x="30" y="58" width="11" height="11" rx="2" fill="#1b1b1b"/><rect x="30" y="72" width="11" height="11" rx="2" fill="#1b1b1b"/><rect x="30" y="86" width="11" height="11" rx="2" fill="#1b1b1b"/><rect x="30" y="100" width="11" height="11" rx="2" fill="#1b1b1b"/><rect x="30" y="114" width="11" height="11" rx="2" fill="#1b1b1b"/><rect x="30" y="128" width="11" height="11" rx="2" fill="#1b1b1b"/><rect x="30" y="142" width="11" height="11" rx="2" fill="#1b1b1b"/><rect x="44" y="58" width="11" height="11" rx="2" fill="#1b1b1b"/><rect x="44" y="72" width="11" height="11" rx="2" fill="#1b1b1b"/><rect x="44" y="86" width="11" height="11" rx="2" fill="#1b1b1b"/><rect x="44" y="100" width="11" height="11" rx="2" fill="#1b1b1b"/><rect x="44" y="114" width="11" height="11" rx="2" fill="#1b1b1b"/><rect x="44" y="128" width="11" height="11" rx="2" fill="#1b1b1b"/><rect x="44" y="142" width="11" height="11" rx="2" fill="#1b1b1b"/><rect x="58" y="58" width="11" height="11" rx="2" fill="#1b1b1b"/><rect x="58" y="72" width="11" height="11" rx="2" fill="#1b1b1b"/><rect x="58" y="86" width="11" height="11" rx="2" fill="#1b1b1b"/><rect x="58" y="100" width="11" height="11" rx="2" fill="#1b1b1b"/><rect x="58" y="114" width="11" height="11" rx="2" fill="#1b1b1b"/><rect x="58" y="128" width="11" height="11" rx="2" fill="#1b1b1b"/><rect x="58" y="142" width="11" height="11" rx="2" fill="#1b1b1b"/><rect x="72" y="58" width="11" height="11" rx="2" fill="#1b1b1b"/><rect x="72" y="72" width="11" height="11" rx="2" fill="#1b1b1b"/><rect x="72" y="86" width="11" height="11" rx="2" fill="#1b1b1b"/><rect x="72" y="100" width="11" height="11" rx="2" fill="#1b1b1b"/><rect x="72" y="114" width="11" height="11" rx="2" fill="#1b1b1b"/><rect x="72" y="128" width="11" height="11" rx="2" fill="#1b1b1b"/><rect x="72" y="142" width="11" height="11" rx="2" fill="#1b1b1b"/><rect x="86" y="58" width="11" height="11" rx="2" fill="#1b1b1b"/><rect x="86" y="72" width="11" height="11" rx="2" fill="#1b1b1b"/><rect x="86" y="86" width="11" height="11" rx="2" fill="#1b1b1b"/><rect x="86" y="100" width="11" height="11" rx="2" fill="#1b1b1b"/><rect x="86" y="114" width="11" height="11" rx="2" fill="#1b1b1b"/><rect x="86" y="128" width="11" height="11" rx="2" fill="#1b1b1b"/><rect x="86" y="142" width="11" height="11" rx="2" fill="#1b1b1b"/><rect x="100" y="58" width="11" height="11" rx="2" fill="#1b1b1b"/><rect x="100" y="72" width="11" height="11" rx="2" fill="#1b1b1b"/><rect x="100" y="86" width="11" height="11" rx="2" fill="#1b1b1b"/><rect x="100" y="100" width="11" height="11" rx="2" fill="#1b1b1b"/><rect x="100" y="114" width="11" height="11" rx="2" fill="#1b1b1b"/><rect x="100" y="128" width="11" height="11" rx="2" fill="#1b1b1b"/><rect x="100" y="142" width="11" height="11" rx="2" fill="#1b1b1b"/><rect x="114" y="58" width="11" height="11" rx="2" fill="#1b1b1b"/><rect x="114" y="72" width="11" height="11" rx="2" fill="#0e4429"/><rect x="114" y="86" width="11" height="11" rx="2" fill="#0e4429"/><rect x="114" y="100" width="11" height="11" rx="2" fill="#0e4429"/><rect x="114" y="114" width="11" height="11" rx="2" fill="#0e4429"/><rect x="114" y="128" width="11" height="11" rx="2" fill="#0e4429"/><rect x="114" y="142" width="11" height="11" rx="2" fill="#0e4429"/><rect x="128" y="58" width="11" height="11" rx="2" fill="#0e4429"/><rect x="128" y="72" width="11" height="11" rx="2" fill="#0e4429"/><rect x="128" y="86" width="11" height="11" rx="2" fill="#0e4429"/><rect x="128" y="100" width="11" height="11" rx="2" fill="#0e4429"/><rect x="128" y="114" width="11" height="11" rx="2" fill="#0e4429"/><rect x="128" y="128" width="11" height="11" rx="2" fill="#0e4429"/><rect x="128" y="142" width="11" height="11" rx="2" fill="#0e4429"/><rect x="142" y="58" width="11" height="11" rx="2" fill="#0e4429"/><rect x="142" y="72" width="11" height="11" rx="2" fill="#1b1b1b"/><rect x="142" y="86" width="11" height="11" rx="2" fill="#0e4429"/><rect x="142" y="100" width="11" height="11" rx="2" fill="#0e4429"/><rect x="142" y="114" width="11" height="11" rx="2" fill="#1b1b1b"/><rect x="142" y="128" width="11" height="11" rx="2" fill="#0e4429"/><rect x="142" y="142" width="11" height="11" rx="2" fill="#0e4429"/><rect x="156" y="58" width="11" height="11" rx="2" fill="#0e4429"/><rect x="156" y="72" width="11" height="11" rx="2" fill="#1b1b1b"/><rect x="156" y="86" width="11" height="11" rx="2" fill="#1b1b1b"/><rect x="156" y="100" width="11" height="11" rx="2" fill="#0e4429"/><rect x="156" y="114" width="11" height="11" rx="2" fill="#006d32"/><rect x="156" y="128" width="11" height="11" rx="2" fill="#0e4429"/><rect x="156" y="142" width="11" height="11" rx="2" fill="#1b1b1b"/><rect x="170" y="58" width="11" height="11" rx="2" fill="#0e4429"/><rect x="170" y="72" width="11" height="11" rx="2" fill="#0e4429"/><rect x="170" y="86" width="11" height="11" rx="2" fill="#0e4429"/><rect x="170" y="100" width="11" height="11" rx="2" fill="#0e4429"/><rect x="170" y="114" width="11" height="11" rx="2" fill="#0e4429"/><rect x="170" y="128" width="11" height="11" rx="2" fill="#0e4429"/><rect x="170" y="142" width="11" height="11" rx="2" fill="#1b1b1b"/><rect x="184" y="58" width="11" height="11" rx="2" fill="#0e4429"/><rect x="184" y="72" width="11" height="11" rx="2" fill="#0e4429"/><rect x="184" y="86" width="11" height="11" rx="2" fill="#0e4429"/><rect x="184" y="100" width="11" height="11" rx="2" fill="#0e4429"/><rect x="184" y="114" width="11" height="11" rx="2" fill="#0e4429"/><rect x="184" y="128" width="11" height="11" rx="2" fill="#1b1b1b"/><rect x="184" y="142" width="11" height="11" rx="2" fill="#1b1b1b"/><rect x="198" y="58" width="11" height="11" rx="2" fill="#1b1b1b"/><rect x="198" y="72" width="11" height="11" rx="2" fill="#1b1b1b"/><rect x="198" y="86" width="11" height="11" rx="2" fill="#0e4429"/><rect x="198" y="100" width="11" height="11" rx="2" fill="#0e4429"/><rect x="198" y="114" width="11" height="11" rx="2" fill="#1b1b1b"/><rect x="198" y="128" width="11" height="11" rx="2" fill="#1b1b1b"/><rect x="198" y="142" width="11" height="11" rx="2" fill="#1b1b1b"/><rect x="212" y="58" width="11" height="11" rx="2" fill="#1b1b1b"/><rect x="212" y="72" width="11" height="11" rx="2" fill="#1b1b1b"/><rect x="212" y="86" width="11" height="11" rx="2" fill="#1b1b1b"/><rect x="212" y="100" width="11" height="11" rx="2" fill="#1b1b1b"/><rect x="212" y="114" width="11" height="11" rx="2" fill="#0e4429"/><rect x="212" y="128" width="11" height="11" rx="2" fill="#1b1b1b"/><rect x="212" y="142" width="11" height="11" rx="2" fill="#0e4429"/><rect x="226" y="58" width="11" height="11" rx="2" fill="#1b1b1b"/><rect x="226" y="72" width="11" height="11" rx="2" fill="#1b1b1b"/><rect x="226" y="86" width="11" height="11" rx="2" fill="#1b1b1b"/><rect x="226" y="100" width="11" height="11" rx="2" fill="#1b1b1b"/><rect x="226" y="114" width="11" height="11" rx="2" fill="#0e4429"/><rect x="226" y="128" width="11" height="11" rx="2" fill="#1b1b1b"/><rect x="226" y="142" width="11" height="11" rx="2" fill="#1b1b1b"/><rect x="240" y="58" width="11" height="11" rx="2" fill="#1b1b1b"/><rect x="240" y="72" width="11" height="11" rx="2" fill="#0e4429"/><rect x="240" y="86" width="11" height="11" rx="2" fill="#006d32"/><rect x="240" y="100" width="11" height="11" rx="2" fill="#0e4429"/><rect x="240" y="114" width="11" height="11" rx="2" fill="#0e4429"/><rect x="240" y="128" width="11" height="11" rx="2" fill="#0e4429"/><rect x="240" y="142" width="11" height="11" rx="2" fill="#0e4429"/><rect x="254" y="58" width="11" height="11" rx="2" fill="#0e4429"/><rect x="254" y="72" width="11" height="11" rx="2" fill="#0e4429"/><rect x="254" y="86" width="11" height="11" rx="2" fill="#0e4429"/><rect x="254" y="100" width="11" height="11" rx="2" fill="#0e4429"/><rect x="254" y="114" width="11" height="11" rx="2" fill="#0e4429"/><rect x="254" y="128" width="11" height="11" rx="2" fill="#0e4429"/><rect x="254" y="142" width="11" height="11" rx="2" fill="#0e4429"/><rect x="268" y="58" width="11" height="11" rx="2" fill="#26a641"/><rect x="268" y="72" width="11" height="11" rx="2" fill="#006d32"/><rect x="268" y="86" width="11" height="11" rx="2" fill="#006d32"/><rect x="268" y="100" width="11" height="11" rx="2" fill="#26a641"/><rect x="268" y="114" width="11" height="11" rx="2" fill="#39d353"/><rect x="268" y="128" width="11" height="11" rx="2" fill="#39d353"/><rect x="268" y="142" width="11" height="11" rx="2" fill="#006d32"/><rect x="282" y="58" width="11" height="11" rx="2" fill="#006d32"/><rect x="282" y="72" width="11" height="11" rx="2" fill="#0e4429"/><rect x="282" y="86" width="11" height="11" rx="2" fill="#0e4429"/><rect x="282" y="100" width="11" height="11" rx="2" fill="#26a641"/><rect x="282" y="114" width="11" height="11" rx="2" fill="#006d32"/><rect x="282" y="128" width="11" height="11" rx="2" fill="#006d32"/><rect x="282" y="142" width="11" height="11" rx="2" fill="#006d32"/><rect x="296" y="58" width="11" height="11" rx="2" fill="#0e4429"/><rect x="296" y="72" width="11" height="11" rx="2" fill="#006d32"/><rect x="296" y="86" width="11" height="11" rx="2" fill="#0e4429"/><rect x="296" y="100" width="11" height="11" rx="2" fill="#0e4429"/><rect x="296" y="114" width="11" height="11" rx="2" fill="#0e4429"/><rect x="296" y="128" width="11" height="11" rx="2" fill="#0e4429"/><rect x="296" y="142" width="11" height="11" rx="2" fill="#0e4429"/><rect x="310" y="58" width="11" height="11" rx="2" fill="#006d32"/><rect x="310" y="72" width="11" height="11" rx="2" fill="#26a641"/><rect x="310" y="86" width="11" height="11" rx="2" fill="#006d32"/><rect x="310" y="100" width="11" height="11" rx="2" fill="#006d32"/><rect x="310" y="114" width="11" height="11" rx="2" fill="#006d32"/><rect x="310" y="128" width="11" height="11" rx="2" fill="#006d32"/><rect x="310" y="142" width="11" height="11" rx="2" fill="#006d32"/><rect x="324" y="58" width="11" height="11" rx="2" fill="#0e4429"/><rect x="324" y="72" width="11" height="11" rx="2" fill="#006d32"/><rect x="324" y="86" width="11" height="11" rx="2" fill="#006d32"/><rect x="324" y="100" width="11" height="11" rx="2" fill="#0e4429"/><rect x="324" y="114" width="11" height="11" rx="2" fill="#0e4429"/><rect x="324" y="128" width="11" height="11" rx="2" fill="#0e4429"/><rect x="324" y="142" width="11" height="11" rx="2" fill="#0e4429"/><rect x="338" y="58" width="11" height="11" rx="2" fill="#0e4429"/><rect x="338" y="72" width="11" height="11" rx="2" fill="#0e4429"/><rect x="338" y="86" width="11" height="11" rx="2" fill="#006d32"/><rect x="338" y="100" width="11" height="11" rx="2" fill="#006d32"/><rect x="338" y="114" width="11" height="11" rx="2" fill="#006d32"/><rect x="338" y="128" width="11" height="11" rx="2" fill="#0e4429"/><rect x="338" y="142" width="11" height="11" rx="2" fill="#0e4429"/><rect x="352" y="58" width="11" height="11" rx="2" fill="#0e4429"/><rect x="352" y="72" width="11" height="11" rx="2" fill="#0e4429"/><rect x="352" y="86" width="11" height="11" rx="2" fill="#0e4429"/><rect x="352" y="100" width="11" height="11" rx="2" fill="#006d32"/><rect x="352" y="114" width="11" height="11" rx="2" fill="#26a641"/><rect x="352" y="128" width="11" height="11" rx="2" fill="#0e4429"/><rect x="352" y="142" width="11" height="11" rx="2" fill="#0e4429"/><rect x="366" y="58" width="11" height="11" rx="2" fill="#0e4429"/><rect x="366" y="72" width="11" height="11" rx="2" fill="#0e4429"/><rect x="366" y="86" width="11" height="11" rx="2" fill="#0e4429"/><rect x="366" y="100" width="11" height="11" rx="2" fill="#0e4429"/><rect x="366" y="114" width="11" height="11" rx="2" fill="#006d32"/><rect x="366" y="128" width="11" height="11" rx="2" fill="#0e4429"/><rect x="366" y="142" width="11" height="11" rx="2" fill="#0e4429"/><rect x="380" y="58" width="11" height="11" rx="2" fill="#0e4429"/><rect x="380" y="72" width="11" height="11" rx="2" fill="#006d32"/><rect x="380" y="86" width="11" height="11" rx="2" fill="#26a641"/><rect x="380" y="100" width="11" height="11" rx="2" fill="#0e4429"/><rect x="380" y="114" width="11" height="11" rx="2" fill="#0e4429"/><rect x="380" y="128" width="11" height="11" rx="2" fill="#1b1b1b"/><text x="253" y="177" text-anchor="end" class="foot">less</text><rect x="261" y="168" width="11" height="11" rx="2" fill="#1b1b1b"/><rect x="275" y="168" width="11" height="11" rx="2" fill="#0e4429"/><rect x="289" y="168" width="11" height="11" rx="2" fill="#006d32"/><rect x="303" y="168" width="11" height="11" rx="2" fill="#26a641"/><rect x="317" y="168" width="11" height="11" rx="2" fill="#39d353"/><text x="336" y="177" class="foot">more</text></g>
</svg>
