<svg width="423" height="335" viewBox="0 0 423 335" xmlns="http://www.w3.org/2000/svg" role="img" aria-label="AI usage">
<style>
.t{font:600 18px 'Segoe UI',Ubuntu,sans-serif;fill:#4ade80}
.user{font:600 14px 'Segoe UI',Ubuntu,sans-serif;fill:#9e9e9e}
.hdr{font:600 11px 'Segoe UI',Ubuntu,sans-serif;fill:#6b6b6b;letter-spacing:1.5px}
.big{font:800 44px 'Segoe UI',Ubuntu,sans-serif;fill:#4ade80}
.sub{font:400 13px 'Segoe UI',Ubuntu,sans-serif;fill:#9e9e9e}
.lbl{font:400 13px 'Segoe UI',Ubuntu,sans-serif;fill:#a3a3a3}
.val{font:700 14px 'Segoe UI',Ubuntu,sans-serif;fill:#4ade80}
.foot{font:400 11px 'Segoe UI',Ubuntu,sans-serif;fill:#6b6b6b}
.fade{opacity:0;animation:fadeIn .8s ease-in-out forwards}
@keyframes fadeIn{to{opacity:1}}
</style>
<rect width="422" height="334" x="0.5" y="0.5" rx="4.5" fill="#000000" stroke="#262626" stroke-width="1"/>
<text x="30" y="34" class="t fade">&#9889; AI Usage</text>
<text x="393" y="34" text-anchor="end" class="user fade">@hmmhmmhm</text>
<text x="393" y="49" text-anchor="end" class="foot fade">API-equivalent &#183; 2026-07-23</text>
<line x1="200" y1="60" x2="200" y2="175" stroke="#262626" stroke-width="1"/>
<g class="fade" style="animation-delay:150ms"><text x="30" y="74" class="hdr">ALL-TIME</text>
<text x="30" y="140" class="big">66.9B</text>
<text x="30" y="165" class="sub">tokens &#183; 94.3% cache-hit</text></g>
<g class="fade" style="animation-delay:300ms"><text x="222" y="74" class="hdr">COST</text><text x="222" y="98" class="lbl">USD</text><text x="393" y="98" text-anchor="end" class="val">$ 35,988</text><text x="222" y="123" class="lbl">KRW</text><text x="393" y="123" text-anchor="end" class="val">₩ 53,262,416</text><text x="222" y="148" class="lbl">EUR</text><text x="393" y="148" text-anchor="end" class="val">€ 31,550</text><text x="222" y="173" class="lbl">CNY</text><text x="393" y="173" text-anchor="end" class="val">¥ 243,877</text></g>
<g class="fade" style="animation-delay:500ms"><text x="30" y="200" class="hdr">GRASS &#183; LAST 26 WEEKS</text><rect x="30" y="212" width="11" height="11" rx="2" fill="#1b1b1b"/><rect x="30" y="226" width="11" height="11" rx="2" fill="#1b1b1b"/><rect x="30" y="240" width="11" height="11" rx="2" fill="#1b1b1b"/><rect x="30" y="254" width="11" height="11" rx="2" fill="#1b1b1b"/><rect x="30" y="268" width="11" height="11" rx="2" fill="#1b1b1b"/><rect x="30" y="282" width="11" height="11" rx="2" fill="#1b1b1b"/><rect x="30" y="296" width="11" height="11" rx="2" fill="#1b1b1b"/><rect x="44" y="212" width="11" height="11" rx="2" fill="#1b1b1b"/><rect x="44" y="226" width="11" height="11" rx="2" fill="#1b1b1b"/><rect x="44" y="240" width="11" height="11" rx="2" fill="#1b1b1b"/><rect x="44" y="254" width="11" height="11" rx="2" fill="#1b1b1b"/><rect x="44" y="268" width="11" height="11" rx="2" fill="#1b1b1b"/><rect x="44" y="282" width="11" height="11" rx="2" fill="#1b1b1b"/><rect x="44" y="296" width="11" height="11" rx="2" fill="#1b1b1b"/><rect x="58" y="212" width="11" height="11" rx="2" fill="#1b1b1b"/><rect x="58" y="226" width="11" height="11" rx="2" fill="#1b1b1b"/><rect x="58" y="240" width="11" height="11" rx="2" fill="#1b1b1b"/><rect x="58" y="254" width="11" height="11" rx="2" fill="#1b1b1b"/><rect x="58" y="268" width="11" height="11" rx="2" fill="#1b1b1b"/><rect x="58" y="282" width="11" height="11" rx="2" fill="#0e4429"/><rect x="58" y="296" width="11" height="11" rx="2" fill="#1b1b1b"/><rect x="72" y="212" width="11" height="11" rx="2" fill="#0e4429"/><rect x="72" y="226" width="11" height="11" rx="2" fill="#0e4429"/><rect x="72" y="240" width="11" height="11" rx="2" fill="#0e4429"/><rect x="72" y="254" width="11" height="11" rx="2" fill="#0e4429"/><rect x="72" y="268" width="11" height="11" rx="2" fill="#0e4429"/><rect x="72" y="282" width="11" height="11" rx="2" fill="#0e4429"/><rect x="72" y="296" width="11" height="11" rx="2" fill="#0e4429"/><rect x="86" y="212" width="11" height="11" rx="2" fill="#0e4429"/><rect x="86" y="226" width="11" height="11" rx="2" fill="#0e4429"/><rect x="86" y="240" width="11" height="11" rx="2" fill="#0e4429"/><rect x="86" y="254" width="11" height="11" rx="2" fill="#0e4429"/><rect x="86" y="268" width="11" height="11" rx="2" fill="#0e4429"/><rect x="86" y="282" width="11" height="11" rx="2" fill="#0e4429"/><rect x="86" y="296" width="11" height="11" rx="2" fill="#1b1b1b"/><rect x="100" y="212" width="11" height="11" rx="2" fill="#1b1b1b"/><rect x="100" y="226" width="11" height="11" rx="2" fill="#0e4429"/><rect x="100" y="240" width="11" height="11" rx="2" fill="#0e4429"/><rect x="100" y="254" width="11" height="11" rx="2" fill="#0e4429"/><rect x="100" y="268" width="11" height="11" rx="2" fill="#0e4429"/><rect x="100" y="282" width="11" height="11" rx="2" fill="#0e4429"/><rect x="100" y="296" width="11" height="11" rx="2" fill="#0e4429"/><rect x="114" y="212" width="11" height="11" rx="2" fill="#0e4429"/><rect x="114" y="226" width="11" height="11" rx="2" fill="#0e4429"/><rect x="114" y="240" width="11" height="11" rx="2" fill="#0e4429"/><rect x="114" y="254" width="11" height="11" rx="2" fill="#0e4429"/><rect x="114" y="268" width="11" height="11" rx="2" fill="#0e4429"/><rect x="114" y="282" width="11" height="11" rx="2" fill="#0e4429"/><rect x="114" y="296" width="11" height="11" rx="2" fill="#0e4429"/><rect x="128" y="212" width="11" height="11" rx="2" fill="#0e4429"/><rect x="128" y="226" width="11" height="11" rx="2" fill="#1b1b1b"/><rect x="128" y="240" width="11" height="11" rx="2" fill="#0e4429"/><rect x="128" y="254" width="11" height="11" rx="2" fill="#0e4429"/><rect x="128" y="268" width="11" height="11" rx="2" fill="#0e4429"/><rect x="128" y="282" width="11" height="11" rx="2" fill="#0e4429"/><rect x="128" y="296" width="11" height="11" rx="2" fill="#0e4429"/><rect x="142" y="212" width="11" height="11" rx="2" fill="#0e4429"/><rect x="142" y="226" width="11" height="11" rx="2" fill="#1b1b1b"/><rect x="142" y="240" width="11" height="11" rx="2" fill="#1b1b1b"/><rect x="142" y="254" width="11" height="11" rx="2" fill="#0e4429"/><rect x="142" y="268" width="11" height="11" rx="2" fill="#006d32"/><rect x="142" y="282" width="11" height="11" rx="2" fill="#0e4429"/><rect x="142" y="296" width="11" height="11" rx="2" fill="#1b1b1b"/><rect x="156" y="212" width="11" height="11" rx="2" fill="#0e4429"/><rect x="156" y="226" width="11" height="11" rx="2" fill="#0e4429"/><rect x="156" y="240" width="11" height="11" rx="2" fill="#0e4429"/><rect x="156" y="254" width="11" height="11" rx="2" fill="#0e4429"/><rect x="156" y="268" width="11" height="11" rx="2" fill="#0e4429"/><rect x="156" y="282" width="11" height="11" rx="2" fill="#0e4429"/><rect x="156" y="296" width="11" height="11" rx="2" fill="#1b1b1b"/><rect x="170" y="212" width="11" height="11" rx="2" fill="#0e4429"/><rect x="170" y="226" width="11" height="11" rx="2" fill="#0e4429"/><rect x="170" y="240" width="11" height="11" rx="2" fill="#0e4429"/><rect x="170" y="254" width="11" height="11" rx="2" fill="#0e4429"/><rect x="170" y="268" width="11" height="11" rx="2" fill="#0e4429"/><rect x="170" y="282" width="11" height="11" rx="2" fill="#1b1b1b"/><rect x="170" y="296" width="11" height="11" rx="2" fill="#1b1b1b"/><rect x="184" y="212" width="11" height="11" rx="2" fill="#0e4429"/><rect x="184" y="226" width="11" height="11" rx="2" fill="#0e4429"/><rect x="184" y="240" width="11" height="11" rx="2" fill="#0e4429"/><rect x="184" y="254" width="11" height="11" rx="2" fill="#0e4429"/><rect x="184" y="268" width="11" height="11" rx="2" fill="#0e4429"/><rect x="184" y="282" width="11" height="11" rx="2" fill="#0e4429"/><rect x="184" y="296" width="11" height="11" rx="2" fill="#0e4429"/><rect x="198" y="212" width="11" height="11" rx="2" fill="#0e4429"/><rect x="198" y="226" width="11" height="11" rx="2" fill="#0e4429"/><rect x="198" y="240" width="11" height="11" rx="2" fill="#1b1b1b"/><rect x="198" y="254" width="11" height="11" rx="2" fill="#1b1b1b"/><rect x="198" y="268" width="11" height="11" rx="2" fill="#0e4429"/><rect x="198" y="282" width="11" height="11" rx="2" fill="#1b1b1b"/><rect x="198" y="296" width="11" height="11" rx="2" fill="#0e4429"/><rect x="212" y="212" width="11" height="11" rx="2" fill="#0e4429"/><rect x="212" y="226" width="11" height="11" rx="2" fill="#1b1b1b"/><rect x="212" y="240" width="11" height="11" rx="2" fill="#1b1b1b"/><rect x="212" y="254" width="11" height="11" rx="2" fill="#1b1b1b"/><rect x="212" y="268" width="11" height="11" rx="2" fill="#0e4429"/><rect x="212" y="282" width="11" height="11" rx="2" fill="#0e4429"/><rect x="212" y="296" width="11" height="11" rx="2" fill="#0e4429"/><rect x="226" y="212" width="11" height="11" rx="2" fill="#0e4429"/><rect x="226" y="226" width="11" height="11" rx="2" fill="#0e4429"/><rect x="226" y="240" width="11" height="11" rx="2" fill="#006d32"/><rect x="226" y="254" width="11" height="11" rx="2" fill="#0e4429"/><rect x="226" y="268" width="11" height="11" rx="2" fill="#0e4429"/><rect x="226" y="282" width="11" height="11" rx="2" fill="#0e4429"/><rect x="226" y="296" width="11" height="11" rx="2" fill="#0e4429"/><rect x="240" y="212" width="11" height="11" rx="2" fill="#0e4429"/><rect x="240" y="226" width="11" height="11" rx="2" fill="#0e4429"/><rect x="240" y="240" width="11" height="11" rx="2" fill="#0e4429"/><rect x="240" y="254" width="11" height="11" rx="2" fill="#0e4429"/><rect x="240" y="268" width="11" height="11" rx="2" fill="#0e4429"/><rect x="240" y="282" width="11" height="11" rx="2" fill="#0e4429"/><rect x="240" y="296" width="11" height="11" rx="2" fill="#0e4429"/><rect x="254" y="212" width="11" height="11" rx="2" fill="#26a641"/><rect x="254" y="226" width="11" height="11" rx="2" fill="#006d32"/><rect x="254" y="240" width="11" height="11" rx="2" fill="#006d32"/><rect x="254" y="254" width="11" height="11" rx="2" fill="#26a641"/><rect x="254" y="268" width="11" height="11" rx="2" fill="#39d353"/><rect x="254" y="282" width="11" height="11" rx="2" fill="#39d353"/><rect x="254" y="296" width="11" height="11" rx="2" fill="#006d32"/><rect x="268" y="212" width="11" height="11" rx="2" fill="#006d32"/><rect x="268" y="226" width="11" height="11" rx="2" fill="#0e4429"/><rect x="268" y="240" width="11" height="11" rx="2" fill="#0e4429"/><rect x="268" y="254" width="11" height="11" rx="2" fill="#26a641"/><rect x="268" y="268" width="11" height="11" rx="2" fill="#006d32"/><rect x="268" y="282" width="11" height="11" rx="2" fill="#006d32"/><rect x="268" y="296" width="11" height="11" rx="2" fill="#006d32"/><rect x="282" y="212" width="11" height="11" rx="2" fill="#0e4429"/><rect x="282" y="226" width="11" height="11" rx="2" fill="#006d32"/><rect x="282" y="240" width="11" height="11" rx="2" fill="#0e4429"/><rect x="282" y="254" width="11" height="11" rx="2" fill="#0e4429"/><rect x="282" y="268" width="11" height="11" rx="2" fill="#0e4429"/><rect x="282" y="282" width="11" height="11" rx="2" fill="#0e4429"/><rect x="282" y="296" width="11" height="11" rx="2" fill="#0e4429"/><rect x="296" y="212" width="11" height="11" rx="2" fill="#006d32"/><rect x="296" y="226" width="11" height="11" rx="2" fill="#26a641"/><rect x="296" y="240" width="11" height="11" rx="2" fill="#006d32"/><rect x="296" y="254" width="11" height="11" rx="2" fill="#006d32"/><rect x="296" y="268" width="11" height="11" rx="2" fill="#006d32"/><rect x="296" y="282" width="11" height="11" rx="2" fill="#006d32"/><rect x="296" y="296" width="11" height="11" rx="2" fill="#006d32"/><rect x="310" y="212" width="11" height="11" rx="2" fill="#0e4429"/><rect x="310" y="226" width="11" height="11" rx="2" fill="#006d32"/><rect x="310" y="240" width="11" height="11" rx="2" fill="#006d32"/><rect x="310" y="254" width="11" height="11" rx="2" fill="#0e4429"/><rect x="310" y="268" width="11" height="11" rx="2" fill="#0e4429"/><rect x="310" y="282" width="11" height="11" rx="2" fill="#0e4429"/><rect x="310" y="296" width="11" height="11" rx="2" fill="#0e4429"/><rect x="324" y="212" width="11" height="11" rx="2" fill="#0e4429"/><rect x="324" y="226" width="11" height="11" rx="2" fill="#0e4429"/><rect x="324" y="240" width="11" height="11" rx="2" fill="#006d32"/><rect x="324" y="254" width="11" height="11" rx="2" fill="#006d32"/><rect x="324" y="268" width="11" height="11" rx="2" fill="#006d32"/><rect x="324" y="282" width="11" height="11" rx="2" fill="#0e4429"/><rect x="324" y="296" width="11" height="11" rx="2" fill="#0e4429"/><rect x="338" y="212" width="11" height="11" rx="2" fill="#0e4429"/><rect x="338" y="226" width="11" height="11" rx="2" fill="#0e4429"/><rect x="338" y="240" width="11" height="11" rx="2" fill="#0e4429"/><rect x="338" y="254" width="11" height="11" rx="2" fill="#006d32"/><rect x="338" y="268" width="11" height="11" rx="2" fill="#26a641"/><rect x="338" y="282" width="11" height="11" rx="2" fill="#0e4429"/><rect x="338" y="296" width="11" height="11" rx="2" fill="#0e4429"/><rect x="352" y="212" width="11" height="11" rx="2" fill="#0e4429"/><rect x="352" y="226" width="11" height="11" rx="2" fill="#0e4429"/><rect x="352" y="240" width="11" height="11" rx="2" fill="#0e4429"/><rect x="352" y="254" width="11" height="11" rx="2" fill="#0e4429"/><rect x="352" y="268" width="11" height="11" rx="2" fill="#006d32"/><rect x="352" y="282" width="11" height="11" rx="2" fill="#0e4429"/><rect x="352" y="296" width="11" height="11" rx="2" fill="#0e4429"/><rect x="366" y="212" width="11" height="11" rx="2" fill="#0e4429"/><rect x="366" y="226" width="11" height="11" rx="2" fill="#006d32"/><rect x="366" y="240" width="11" height="11" rx="2" fill="#26a641"/><rect x="366" y="254" width="11" height="11" rx="2" fill="#0e4429"/><rect x="366" y="268" width="11" height="11" rx="2" fill="#0e4429"/><rect x="366" y="282" width="11" height="11" rx="2" fill="#0e4429"/><rect x="366" y="296" width="11" height="11" rx="2" fill="#0e4429"/><rect x="380" y="212" width="11" height="11" rx="2" fill="#006d32"/><rect x="380" y="226" width="11" height="11" rx="2" fill="#0e4429"/><rect x="380" y="240" width="11" height="11" rx="2" fill="#0e4429"/><rect x="380" y="254" width="11" height="11" rx="2" fill="#0e4429"/><rect x="380" y="268" width="11" height="11" rx="2" fill="#0e4429"/><text x="253" y="325" text-anchor="end" class="foot">less</text><rect x="261" y="316" width="11" height="11" rx="2" fill="#1b1b1b"/><rect x="275" y="316" width="11" height="11" rx="2" fill="#0e4429"/><rect x="289" y="316" width="11" height="11" rx="2" fill="#006d32"/><rect x="303" y="316" width="11" height="11" rx="2" fill="#26a641"/><rect x="317" y="316" width="11" height="11" rx="2" fill="#39d353"/><text x="336" y="325" class="foot">more</text></g>
</svg>
